<svg xmlns="http://www.w3.org/2000/svg" width="128" height="128" fill="none" viewBox="0 0 128 128" id="shopping-cart-add">
  <circle cx="49" cy="107" r="5" fill="#000"></circle>
  <circle cx="87" cy="107" r="5" fill="#000"></circle>
  <path stroke="#000" stroke-linecap="round" stroke-linejoin="round" stroke-width="7" d="M43.116 77H80.0627C87.276 77 90.8827 77 93.7816 75.2093C96.6806 73.4186 98.3028 70.178 101.547 63.6968V63.6968C109.382 48.045 113.3 40.2192 109.783 34.5255C106.266 28.8319 97.5594 28.8319 80.1468 28.8319H32.0126M43.116 77L32.2617 29.8155L31.3089 26.0536C30.2073 21.7046 29.6566 19.5301 28.0311 18.2651C26.4057 17 24.1625 17 19.6762 17H16M43.116 77H39.7626C35.4824 77 32.0126 80.4698 32.0126 84.75V84.75C32.0126 89.0302 35.4824 92.5 39.7626 92.5H94.8878"></path>
  <path stroke="#000" stroke-linecap="round" stroke-width="7" d="M72 45V63M81 54L63 54"></path>
</svg>
